<svg xmlns:xlink="http://www.w3.org/1999/xlink" xmlns="http://www.w3.org/2000/svg" viewBox="45.503519999999995 137.2 278.35836 102.44590405904059" version="1.2" preserveAspectRatio="xMidYMid meet" zoomAndPan="magnify" style="max-height: 500px" width="278.35836" height="102.44590405904059"><defs fill="#2196f3"><clipPath id="df27d3d98d" fill="#2196f3"><path d="M 11.234375 163 L 63.734375 163 L 63.734375 177.15625 L 11.234375 177.15625 Z M 11.234375 163" fill="#2196f3"/></clipPath><clipPath id="cf16eeab0b" fill="#2196f3"><path d="M 22.488281 189.015625 L 74.988281 189.015625 L 74.988281 203.265625 L 22.488281 203.265625 Z M 22.488281 189.015625" fill="#2196f3"/></clipPath><clipPath id="ab4820dc44" fill="#2196f3"><path d="M 72 159.074219 L 124.386719 159.074219 L 124.386719 173.324219 L 72 173.324219 Z M 72 159.074219" fill="#2196f3"/></clipPath><clipPath id="e57ce4b313" fill="#2196f3"><path d="M 124.371094 173.246094 L 176.871094 173.246094 L 176.871094 187.496094 L 124.371094 187.496094 Z M 124.371094 173.246094" fill="#2196f3"/></clipPath><clipPath id="1325866a5b" fill="#2196f3"><path d="M 84 171.074219 L 136.386719 171.074219 L 136.386719 185.324219 L 84 185.324219 Z M 84 171.074219" fill="#2196f3"/></clipPath><clipPath id="2c13a7c1cc" fill="#2196f3"><path d="M 96 183.074219 L 148.386719 183.074219 L 148.386719 197.324219 L 96 197.324219 Z M 96 183.074219" fill="#2196f3"/></clipPath><clipPath id="ac1a8787a8" fill="#2196f3"><path d="M 108 195.074219 L 160.386719 195.074219 L 160.386719 209.324219 L 108 209.324219 Z M 108 195.074219" fill="#2196f3"/></clipPath><clipPath id="a6e195c74c" fill="#2196f3"><path d="M 222.261719 173.714844 L 274.761719 173.714844 L 274.761719 187.964844 L 222.261719 187.964844 Z M 222.261719 173.714844" fill="#2196f3"/></clipPath><clipPath id="38aba0a221" fill="#2196f3"><path d="M 307 173.714844 L 359.5 173.714844 L 359.5 187.964844 L 307 187.964844 Z M 307 173.714844" fill="#2196f3"/></clipPath></defs><g id="a15afc47ae"><path d="M 323.417969 237.757812 C 308.292969 237.441406 295.507812 223.671875 280.382812 223.355469 C 263.082031 222.992188 247.808594 238.121094 230.507812 237.757812 C 215.382812 237.441406 202.59375 223.671875 187.472656 223.355469 C 170.171875 222.992188 154.898438 238.121094 137.597656 237.757812 C 122.472656 237.441406 109.683594 223.671875 94.558594 223.355469 C 77.257812 222.992188 61.984375 238.121094 44.6875 237.757812 C 29.5625 237.441406 1.648438 223.355469 1.648438 223.355469 L 1.648438 137.207031 C 1.648438 137.207031 29.5625 151.292969 44.6875 151.609375 C 61.984375 151.972656 77.257812 136.84375 94.558594 137.207031 C 109.683594 137.523438 122.472656 151.292969 137.597656 151.609375 C 154.898438 151.972656 170.171875 136.84375 187.472656 137.207031 C 202.59375 137.523438 215.382812 151.292969 230.507812 151.609375 C 247.808594 151.972656 263.082031 136.84375 280.382812 137.207031 C 295.507812 137.523438 308.292969 151.292969 323.417969 151.609375 C 340.71875 151.972656 373.292969 137.207031 373.292969 137.207031 L 373.292969 223.355469 C 359.800781 235.578125 340.71875 238.121094 323.417969 237.757812 Z M 323.417969 237.757812" style="stroke:none;fill-rule:nonzero;fill:#2196f3;fill-opacity:1;"/><g clip-path="url(#df27d3d98d)" clip-rule="nonzero"><path d="M 56.515625 177.105469 C 54.398438 177.058594 52.609375 175.132812 50.492188 175.089844 C 48.070312 175.039062 45.933594 177.15625 43.511719 177.105469 C 41.394531 177.058594 39.605469 175.132812 37.492188 175.089844 C 35.070312 175.039062 32.933594 177.15625 30.511719 177.105469 C 28.394531 177.058594 26.605469 175.132812 24.488281 175.089844 C 22.070312 175.039062 19.929688 177.15625 17.511719 177.105469 C 15.394531 177.058594 11.488281 175.089844 11.488281 175.089844 L 11.488281 163.035156 C 11.488281 163.035156 15.394531 165.003906 17.511719 165.050781 C 19.929688 165.101562 22.070312 162.984375 24.488281 163.035156 C 26.605469 163.078125 28.394531 165.003906 30.511719 165.050781 C 32.933594 165.101562 35.070312 162.984375 37.492188 163.035156 C 39.605469 163.078125 41.394531 165.003906 43.511719 165.050781 C 45.933594 165.101562 48.070312 162.984375 50.492188 163.035156 C 52.609375 163.078125 54.398438 165.003906 56.515625 165.050781 C 58.933594 165.101562 63.492188 163.035156 63.492188 163.035156 L 63.492188 175.089844 C 61.605469 176.796875 58.933594 177.15625 56.515625 177.105469 Z M 56.515625 177.105469" style="stroke:none;fill-rule:nonzero;fill:#2196f3;fill-opacity:1;"/></g><g clip-path="url(#cf16eeab0b)" clip-rule="nonzero"><path d="M 67.769531 203.214844 C 65.652344 203.171875 63.863281 201.246094 61.746094 201.199219 C 59.328125 201.148438 57.191406 203.265625 54.769531 203.214844 C 52.652344 203.171875 50.863281 201.246094 48.746094 201.199219 C 46.324219 201.148438 44.1875 203.265625 41.769531 203.214844 C 39.652344 203.171875 37.863281 201.246094 35.746094 201.199219 C 33.324219 201.148438 31.1875 203.265625 28.765625 203.214844 C 26.652344 203.171875 22.746094 201.199219 22.746094 201.199219 L 22.746094 189.144531 C 22.746094 189.144531 26.652344 191.117188 28.765625 191.160156 C 31.1875 191.210938 33.324219 189.09375 35.746094 189.144531 C 37.863281 189.191406 39.652344 191.117188 41.769531 191.160156 C 44.1875 191.210938 46.324219 189.09375 48.746094 189.144531 C 50.863281 189.191406 52.652344 191.117188 54.769531 191.160156 C 57.191406 191.210938 59.328125 189.09375 61.746094 189.144531 C 63.863281 189.191406 65.652344 191.117188 67.769531 191.160156 C 70.191406 191.210938 74.75 189.144531 74.75 189.144531 L 74.75 201.199219 C 72.859375 202.910156 70.191406 203.265625 67.769531 203.214844 Z M 67.769531 203.214844" style="stroke:none;fill-rule:nonzero;fill:#2196f3;fill-opacity:1;"/></g><g clip-path="url(#ab4820dc44)" clip-rule="nonzero"><path d="M 117.167969 173.273438 C 115.050781 173.230469 113.261719 171.300781 111.144531 171.257812 C 108.722656 171.207031 106.585938 173.324219 104.164062 173.273438 C 102.050781 173.230469 100.257812 171.300781 98.144531 171.257812 C 95.722656 171.207031 93.585938 173.324219 91.164062 173.273438 C 89.046875 173.230469 87.257812 171.300781 85.140625 171.257812 C 82.722656 171.207031 80.585938 173.324219 78.164062 173.273438 C 76.046875 173.230469 72.140625 171.257812 72.140625 171.257812 L 72.140625 159.203125 C 72.140625 159.203125 76.046875 161.175781 78.164062 161.21875 C 80.585938 161.269531 82.722656 159.152344 85.140625 159.203125 C 87.257812 159.246094 89.046875 161.175781 91.164062 161.21875 C 93.585938 161.269531 95.722656 159.152344 98.144531 159.203125 C 100.257812 159.246094 102.050781 161.175781 104.164062 161.21875 C 106.585938 161.269531 108.722656 159.152344 111.144531 159.203125 C 113.261719 159.246094 115.050781 161.175781 117.167969 161.21875 C 119.585938 161.269531 124.144531 159.203125 124.144531 159.203125 L 124.144531 171.257812 C 122.257812 172.96875 119.585938 173.324219 117.167969 173.273438 Z M 117.167969 173.273438" style="stroke:none;fill-rule:nonzero;fill:#2196f3;fill-opacity:1;"/></g><g clip-path="url(#e57ce4b313)" clip-rule="nonzero"><path d="M 169.652344 187.445312 C 167.539062 187.402344 165.75 185.472656 163.632812 185.429688 C 161.210938 185.378906 159.074219 187.496094 156.652344 187.445312 C 154.535156 187.402344 152.746094 185.472656 150.628906 185.429688 C 148.210938 185.378906 146.074219 187.496094 143.652344 187.445312 C 141.535156 187.402344 139.746094 185.472656 137.628906 185.429688 C 135.207031 185.378906 133.070312 187.496094 130.652344 187.445312 C 128.535156 187.402344 124.628906 185.429688 124.628906 185.429688 L 124.628906 173.375 C 124.628906 173.375 128.535156 175.347656 130.652344 175.390625 C 133.070312 175.441406 135.207031 173.324219 137.628906 173.375 C 139.746094 173.417969 141.535156 175.347656 143.652344 175.390625 C 146.074219 175.441406 148.210938 173.324219 150.628906 173.375 C 152.746094 173.417969 154.535156 175.347656 156.652344 175.390625 C 159.074219 175.441406 161.210938 173.324219 163.632812 173.375 C 165.75 173.417969 167.539062 175.347656 169.652344 175.390625 C 172.074219 175.441406 176.632812 173.375 176.632812 173.375 L 176.632812 185.429688 C 174.746094 187.140625 172.074219 187.496094 169.652344 187.445312 Z M 169.652344 187.445312" style="stroke:none;fill-rule:nonzero;fill:#2196f3;fill-opacity:1;"/></g><g clip-path="url(#1325866a5b)" clip-rule="nonzero"><path d="M 129.167969 185.273438 C 127.050781 185.230469 125.261719 183.300781 123.144531 183.257812 C 120.722656 183.207031 118.585938 185.324219 116.164062 185.273438 C 114.050781 185.230469 112.257812 183.300781 110.144531 183.257812 C 107.722656 183.207031 105.585938 185.324219 103.164062 185.273438 C 101.046875 185.230469 99.257812 183.300781 97.140625 183.257812 C 94.722656 183.207031 92.585938 185.324219 90.164062 185.273438 C 88.046875 185.230469 84.140625 183.257812 84.140625 183.257812 L 84.140625 171.203125 C 84.140625 171.203125 88.046875 173.175781 90.164062 173.21875 C 92.585938 173.269531 94.722656 171.152344 97.140625 171.203125 C 99.257812 171.246094 101.046875 173.175781 103.164062 173.21875 C 105.585938 173.269531 107.722656 171.152344 110.144531 171.203125 C 112.257812 171.246094 114.050781 173.175781 116.164062 173.21875 C 118.585938 173.269531 120.722656 171.152344 123.144531 171.203125 C 125.261719 171.246094 127.050781 173.175781 129.167969 173.21875 C 131.585938 173.269531 136.144531 171.203125 136.144531 171.203125 L 136.144531 183.257812 C 134.257812 184.96875 131.585938 185.324219 129.167969 185.273438 Z M 129.167969 185.273438" style="stroke:none;fill-rule:nonzero;fill:#2196f3;fill-opacity:1;"/></g><g clip-path="url(#2c13a7c1cc)" clip-rule="nonzero"><path d="M 141.167969 197.273438 C 139.050781 197.230469 137.261719 195.300781 135.144531 195.257812 C 132.722656 195.207031 130.585938 197.324219 128.164062 197.273438 C 126.050781 197.230469 124.257812 195.300781 122.144531 195.257812 C 119.722656 195.207031 117.585938 197.324219 115.164062 197.273438 C 113.046875 197.230469 111.257812 195.300781 109.140625 195.257812 C 106.722656 195.207031 104.585938 197.324219 102.164062 197.273438 C 100.046875 197.230469 96.140625 195.257812 96.140625 195.257812 L 96.140625 183.203125 C 96.140625 183.203125 100.046875 185.175781 102.164062 185.21875 C 104.585938 185.269531 106.722656 183.152344 109.140625 183.203125 C 111.257812 183.246094 113.046875 185.175781 115.164062 185.21875 C 117.585938 185.269531 119.722656 183.152344 122.144531 183.203125 C 124.257812 183.246094 126.050781 185.175781 128.164062 185.21875 C 130.585938 185.269531 132.722656 183.152344 135.144531 183.203125 C 137.261719 183.246094 139.050781 185.175781 141.167969 185.21875 C 143.585938 185.269531 148.144531 183.203125 148.144531 183.203125 L 148.144531 195.257812 C 146.257812 196.96875 143.585938 197.324219 141.167969 197.273438 Z M 141.167969 197.273438" style="stroke:none;fill-rule:nonzero;fill:#2196f3;fill-opacity:1;"/></g><g clip-path="url(#ac1a8787a8)" clip-rule="nonzero"><path d="M 153.167969 209.273438 C 151.050781 209.230469 149.261719 207.300781 147.144531 207.257812 C 144.722656 207.207031 142.585938 209.324219 140.164062 209.273438 C 138.050781 209.230469 136.257812 207.300781 134.144531 207.257812 C 131.722656 207.207031 129.585938 209.324219 127.164062 209.273438 C 125.046875 209.230469 123.257812 207.300781 121.140625 207.257812 C 118.722656 207.207031 116.585938 209.324219 114.164062 209.273438 C 112.046875 209.230469 108.140625 207.257812 108.140625 207.257812 L 108.140625 195.203125 C 108.140625 195.203125 112.046875 197.175781 114.164062 197.21875 C 116.585938 197.269531 118.722656 195.152344 121.140625 195.203125 C 123.257812 195.246094 125.046875 197.175781 127.164062 197.21875 C 129.585938 197.269531 131.722656 195.152344 134.144531 195.203125 C 136.257812 195.246094 138.050781 197.175781 140.164062 197.21875 C 142.585938 197.269531 144.722656 195.152344 147.144531 195.203125 C 149.261719 195.246094 151.050781 197.175781 153.167969 197.21875 C 155.585938 197.269531 160.144531 195.203125 160.144531 195.203125 L 160.144531 207.257812 C 158.257812 208.96875 155.585938 209.324219 153.167969 209.273438 Z M 153.167969 209.273438" style="stroke:none;fill-rule:nonzero;fill:#2196f3;fill-opacity:1;"/></g><g clip-path="url(#acda9ec74c)" clip-rule="nonzero"><path d="M 267.542969 187.914062 C 265.425781 187.871094 263.636719 185.945312 261.523438 185.898438 C 259.101562 185.847656 256.964844 187.964844 254.542969 187.914062 C 252.425781 187.871094 250.636719 185.945312 248.519531 185.898438 C 246.101562 185.847656 243.960938 187.964844 241.542969 187.914062 C 239.425781 187.871094 237.636719 185.945312 235.519531 185.898438 C 233.097656 185.847656 230.960938 187.964844 228.539062 187.914062 C 226.425781 187.871094 222.519531 185.898438 222.519531 185.898438 L 222.519531 173.84375 C 222.519531 173.84375 226.425781 175.816406 228.539062 175.859375 C 230.960938 175.910156 233.097656 173.792969 235.519531 173.84375 C 237.636719 173.886719 239.425781 175.816406 241.542969 175.859375 C 243.960938 175.910156 246.101562 173.792969 248.519531 173.84375 C 250.636719 173.886719 252.425781 175.816406 254.542969 175.859375 C 256.964844 175.910156 259.101562 173.792969 261.523438 173.84375 C 263.636719 173.886719 265.425781 175.816406 267.542969 175.859375 C 269.964844 175.910156 274.523438 173.84375 274.523438 173.84375 L 274.523438 185.898438 C 272.636719 187.609375 269.964844 187.964844 267.542969 187.914062 Z M 267.542969 187.914062" style="stroke:none;fill-rule:nonzero;fill:#2196f3;fill-opacity:1;"/></g><g clip-path="url(#38aba0a221)" clip-rule="nonzero"><path d="M 352.28125 187.914062 C 350.164062 187.871094 348.375 185.945312 346.257812 185.898438 C 343.839844 185.847656 341.699219 187.964844 339.28125 187.914062 C 337.164062 187.871094 335.375 185.945312 333.257812 185.898438 C 330.835938 185.847656 328.699219 187.964844 326.277344 187.914062 C 324.164062 187.871094 322.375 185.945312 320.257812 185.898438 C 317.835938 185.847656 315.699219 187.964844 313.277344 187.914062 C 311.160156 187.871094 307.253906 185.898438 307.253906 185.898438 L 307.253906 173.84375 C 307.253906 173.84375 311.160156 175.816406 313.277344 175.859375 C 315.699219 175.910156 317.835938 173.792969 320.257812 173.84375 C 322.375 173.886719 324.164062 175.816406 326.277344 175.859375 C 328.699219 175.910156 330.835938 173.792969 333.257812 173.84375 C 335.375 173.886719 337.164062 175.816406 339.28125 175.859375 C 341.699219 175.910156 343.839844 173.792969 346.257812 173.84375 C 348.375 173.886719 350.164062 175.816406 352.28125 175.859375 C 354.703125 175.910156 359.261719 173.84375 359.261719 173.84375 L 359.261719 185.898438 C 357.371094 187.609375 354.703125 187.964844 352.28125 187.914062 Z M 352.28125 187.914062" style="stroke:none;fill-rule:nonzero;fill:#2196f3;fill-opacity:1;"/></g></g></svg>